<svg xmlns="http://www.w3.org/2000/svg" xmlns:svg="http://www.w3.org/2000/svg" id="svg4596" width="402.911" height="214.088" preserveAspectRatio="xMidYMid meet" version="1.0" viewBox="0 0 302.183 160.566"><metadata id="metadata4602"/><g id="g1585" transform="matrix(0.22446835,0,0,0.22446835,-1.2234172,-1.2234172)"><flowRoot style="font-style:normal;font-weight:400;font-size:15.98591805px;line-height:1.25;font-family:sans-serif;text-align:center;letter-spacing:0;word-spacing:0;text-anchor:middle;fill:#000;fill-opacity:1;stroke:none" id="flowRoot5200" transform="translate(39.882779,313.60578)" xml:space="preserve"><flowRegion id="flowRegion5202"><rect id="rect5204" width="47.814" height="22.068" x="-411.932" y="-500.203"/></flowRegion><flowPara id="flowPara5206"/></flowRoot><path style="font-style:normal;font-variant:normal;font-weight:400;font-stretch:normal;font-size:550px;line-height:1.25;font-family:replay;-inkscape-font-specification:replay;text-align:center;letter-spacing:0;word-spacing:0;text-anchor:middle;fill:#000;fill-opacity:1;stroke:none;stroke-width:.75" id="path1519" d="M 49.999998,291.21635 H 248 l 19.25,19.25 v 118.25 l -30.25,31.35 30.25,31.35 v 165.55 l -19.25,19.25 H 49.999998 Z m 62.150002,139.15 h 92.95 v -78.1 h -92.95 z m 0,184.8 h 92.95 v -125.4 h -92.95 z"/><path style="font-style:normal;font-variant:normal;font-weight:400;font-stretch:normal;font-size:550px;line-height:1.25;font-family:replay;-inkscape-font-specification:replay;text-align:center;letter-spacing:0;word-spacing:0;text-anchor:middle;fill:#000;fill-opacity:1;stroke:none;stroke-width:.75" id="path1521" d="m 498.00078,401.21635 v 275 h -57.75 v -19.25 l -19.25,19.25 h -131.45 v -164.45 h 149.05 v -51.15 h -149.05 v -59.4 z m -57.75,216.15 v -46.75 h -92.95 v 46.75 z"/><path style="font-style:normal;font-variant:normal;font-weight:400;font-stretch:normal;font-size:550px;line-height:1.25;font-family:replay;-inkscape-font-specification:replay;text-align:center;letter-spacing:0;word-spacing:0;text-anchor:middle;fill:#000;fill-opacity:1;stroke:none;stroke-width:.75" id="path1523" d="m 545.25781,662.46635 v -201.85 h -24.75 v -59.4 h 24.75 v -37.4 h 57.75 v 37.4 h 69.3 v 59.4 h -69.3 v 156.2 h 69.3 v 59.4 h -113.3 z"/><path style="font-style:normal;font-variant:normal;font-weight:400;font-stretch:normal;font-size:550px;line-height:1.25;font-family:replay;-inkscape-font-specification:replay;text-align:center;letter-spacing:0;word-spacing:0;text-anchor:middle;fill:#000;fill-opacity:1;stroke:none;stroke-width:.75" id="path1525" d="m 694.53125,600.31635 h 57.75 v 16.5 h 92.95 v -20.9 l -150.7,-55.55 v -139.15 h 208.45 v 75.9 h -58.3 v -16.5 h -96.8 v 35.75 l 155.1,55.55 v 124.3 h -208.45 z"/><path style="font-style:normal;font-variant:normal;font-weight:400;font-stretch:normal;font-size:550px;line-height:1.25;font-family:replay;-inkscape-font-specification:replay;text-align:center;letter-spacing:0;word-spacing:0;text-anchor:middle;fill:#000;fill-opacity:1;stroke:none;stroke-width:.75" id="path1527" d="m 925.48828,401.21635 h 57.75002 v 275 h -57.75002 z"/><path style="font-style:normal;font-variant:normal;font-weight:400;font-stretch:normal;font-size:550px;line-height:1.25;font-family:replay;-inkscape-font-specification:replay;text-align:center;letter-spacing:0;word-spacing:0;text-anchor:middle;fill:#000;fill-opacity:1;stroke:none;stroke-width:.75" id="path1529" d="m 1186.4805,454.56635 v -28.6 l 24.75,-24.75 h 99 v 275 h -57.75 v -221.65 z m -123.75,0 v 221.65 h -57.75 v -275 h 57.75 v 24.75 l 24.75,-24.75 h 99 v 275 h -57.75 v -221.65 z"/><path id="path1319" d="m 941.70454,348.3276 c -14.72749,-14.0915 -79.97519,-19.318 -87.436,-10.7278 -12.3215,14.1868 -25.55056,27.5864 -8.8622,-1.1636 -18.38502,19.7143 -15.72675,7.4401 3.0631,-14.70735 0,0 21.9038,-5.36357 17.6752,-18.81446 -4.5099,-14.34559 -69.37902,-51.89183 -121.96089,-42.64116 -61.46142,10.81283 -37.71945,11.48441 -56.78408,-13.73006 -7.03882,-9.30941 -11.60966,-18.67695 -69.10982,-13.88181 -5.69504,-32.25973 -12.22331,-54.89127 -52.32228,-64.68689 113.50862,-75.510082 154.8931,-74.403152 154.36999,-79.209612 -2.50857,-23.0488 -10.28525,-49.17408 7.38287,-3.03191 -0.40338,-40.1081 -3.29063,-28.48451 7.26532,1.78577 2.43758,6.99001 51.96076,29.754922 92.74516,38.368342 56.14544,11.85758 73.37054,24.52288 73.37054,16.29137 0,-6.00406 -5.4882,-22.32876 -10.188,-25.2334 -10.5816,-6.53976 -19.5963,-53.846842 -6.3687,-63.846362 3.3704,-3.42808 70.95025,49.015532 70.95025,49.015532 0,0 60.8684,-49.389842 67.4494,-52.114202 9.5074,7.36538 12.7386,37.7431 -6.6663,65.617442 -4.0078,5.75694 -6.554,18.31711 -6.554,23.65864 0,11.45223 97.5441,-9.12582 157.08,-46.828772 18.3112,-11.59617 8.3312,-51.36304 13.709,-9.3751 12.7707,-36.04801 10.0233,-21.62694 4.3867,4.29563 -1.1974,5.50688 84.6243,17.272762 157.8592,91.201542 -18.1206,0 -45.0656,3.51841 -50.5411,54.86333 -52.4739,-0.21854 -57.9811,-1.01457 -80.1523,31.79884 -59.5965,-4.86748 -116.4238,-6.73311 -142.7353,16.77624 l -28.5686,25.5261 21.2089,18.0518 c 12.3523,10.51371 22.4278,26.14421 0.1767,8.39971 2.8074,33.2575 2.7825,15.6935 -12.5594,-2.4318 -23.7199,0.024 -75.6048,3.746 -80.3596,18.0438 -16.7688,50.4234 -16.6381,48.6113 -27.52376,-1.2698 z" style="fill:#000;fill-opacity:1;stroke-width:.75"/></g></svg>